<svg width="36" height="36" viewBox="0 0 36 36" fill="none" xmlns="http://www.w3.org/2000/svg">
<path d="M30.8571 0.0119629C33.6938 0.0119629 36 2.2623 36 5.03889V30.1735C36 32.9462 33.6938 35.2005 30.8571 35.2005H5.14286C2.30223 35.2005 0 32.9462 0 30.1735V5.03889C0 2.2623 2.30223 0.0119629 5.14286 0.0119629H30.8571ZM27.3054 14.1345C28.1812 13.2783 28.1812 11.8802 27.3054 11.0241C26.4295 10.1679 24.9991 10.1679 24.1232 11.0241L15.4286 19.5227L11.8768 16.051C11.0009 15.1949 9.57053 15.1949 8.69464 16.051C7.81634 16.9072 7.81634 18.3053 8.69464 19.1614L13.8375 24.1883C14.7134 25.0445 16.1438 25.0445 17.0196 24.1883L27.3054 14.1345Z" fill="#8C806E"/>
</svg>
