<svg style="fill-rule:evenodd;clip-rule:evenodd;stroke-linejoin:round;stroke-miterlimit:2" viewBox="0 0 512 512" xml:space="preserve" xmlns="http://www.w3.org/2000/svg"><g transform="matrix(1.04839 0 0 1.06716 -11.355 -15.284)"><ellipse cx="255.015" cy="254.21" rx="244.185" ry="239.888" style="fill:#39ae41"/><path d="M255.015 14.322c134.77 0 244.185 107.49 244.185 239.888 0 132.398-109.415 239.888-244.185 239.888-134.769 0-244.184-107.49-244.184-239.888 0-132.398 109.415-239.888 244.184-239.888zm0 7.496c130.558 0 236.554 104.131 236.554 232.392 0 128.26-105.996 232.391-236.554 232.391-130.557 0-236.553-104.131-236.553-232.391 0-128.261 105.996-232.392 236.553-232.392z" style="fill:#fff"/></g><path d="M113.799 325.261c-12.309-22.915-19.293-49.111-19.293-76.929 0-89.799 72.778-162.705 162.419-162.705 89.642 0 162.419 72.906 162.419 162.705 0 89.8-72.777 162.705-162.419 162.705-25.339 0-49.33-5.825-70.705-16.207l.001.001-83.188 16.206 10.766-85.776zm22.401 50.206 54.674-10.31v-.001c19.402 10.961 41.8 17.215 65.647 17.215 73.852 0 133.811-59.99 133.811-133.881 0-73.892-59.959-133.882-133.811-133.882s-133.81 59.99-133.81 133.882c0 26.364 7.633 50.959 20.803 71.685v-.001l-7.314 55.293z" style="fill:#fff" transform="translate(-1.16 2.603)"/><path d="M338.062 290.822c-1.539-3.727-23.598-15.505-35.729-21.649-2.556-.818-6.152-1.297-8.049.601l-16.82 18.381c-1.967 1.056-3.599 1.106-4.925.24-24.329-12.252-43.163-29.717-54.997-53.822-.931-1.272-.911-2.733-.241-4.325l12.134-13.516c2.564-3.243 3.324-7.208 1.082-12.374l-10.452-29.254c-1.242-3.364-2.964-5.606-5.166-6.728-5.742-1.542-13.734-1.604-18.333 1.034-24.309 13.939-26.415 43.692-8.054 75.855 12.775 22.379 28.808 43.079 52.158 60.01 15.973 9.838 32.803 17.393 50.699 22.105 6.715.911 12.455.651 17.568-.36 29.711-5.876 30.199-33.597 29.125-36.198z" style="fill:#fff" transform="translate(-1.16 2.603)"/></svg>